<svg id="Capa_1" data-name="Capa 1" xmlns="http://www.w3.org/2000/svg" viewBox="0 0 1119.92 307.87"><defs><style>.cls-1{fill:#fff;}</style></defs><path class="cls-1" d="M907.3,415.21,931,389.54a8.82,8.82,0,0,1,13,0l23.59,25.67a8.82,8.82,0,0,1-.31,12.26l-23.65,23.23a8.83,8.83,0,0,1-12.37,0L907.6,427.49A8.83,8.83,0,0,1,907.3,415.21Z" transform="translate(-427.58 -382.64)"/><rect class="cls-1" x="401.92" y="186.86" width="23" height="85" rx="11.5"/><path class="cls-1" d="M633.5,504.5a44.55,44.55,0,0,0-16-10c-13.62-4.76-25.78-.89-26-2-.44-2.23,34-10,34-10,20.77-4.69,37.78-8,49-10" transform="translate(-427.58 -382.64)"/><rect class="cls-1" x="313.92" y="226.86" width="19" height="52" rx="9.5"/><rect class="cls-1" x="7.92" y="264.86" width="149" height="14" rx="7"/><path class="cls-1" d="M1099,484.5H999c-2.18,0-3.73,2.83-1.16,5h102.32C1102.73,487.33,1101.18,484.5,1099,484.5Z" transform="translate(-427.58 -382.64)"/><path class="cls-1" d="M839.5,641.5a8,8,0,0,0,8-8v-49a8,8,0,0,0-16,0v49A8,8,0,0,0,839.5,641.5Z" transform="translate(-427.58 -382.64)"/><path class="cls-1" d="M746.5,650l3.63,2.21A2.5,2.5,0,0,0,751.5,650V613a2.5,2.5,0,0,0-5,0v37Z" transform="translate(-427.58 -382.64)"/><path class="cls-1" d="M579,652.5H445a2.5,2.5,0,0,0,0,5H579a2.5,2.5,0,0,0,0-5Z" transform="translate(-427.58 -382.64)"/><path class="cls-1" d="M641.27,547.31c0,.05,0,.1,0,.15l.18-1C641.38,546.78,641.32,547.05,641.27,547.31Z" transform="translate(-427.58 -382.64)"/><path class="cls-1" d="M744.32,548c0-.31,0-.63-.05-1,0,.34,0,.67.05,1C744.32,548,744.33,548,744.32,548Z" transform="translate(-427.58 -382.64)"/><path class="cls-1" d="M749,652.5a2.51,2.51,0,0,1-2.5-2.49l-9.91-6h0a156.38,156.38,0,0,1-29.42,2.5c-34.3,0-64.09-18.41-66.95-62.8a4.83,4.83,0,0,1,4.8-5.18H773.28a4.81,4.81,0,0,0,4.79-4.28,111.62,111.62,0,0,0,.72-12.31c0-36-17-92.25-80.92-92.25-57,0-91.85,46.53-91.85,105.6S642,674,702.32,674c28.2,0,48.45-5.31,61.34-10.52a4.65,4.65,0,0,0,2.11-1.69l-15.64-9.54A2.52,2.52,0,0,1,749,652.5Zm-107.75-105c0-.05,0-.1,0-.15.05-.26.11-.53.16-.8l.21-1q.14-.68.3-1.35c.07-.34.15-.67.23-1s.23-.94.35-1.41.17-.64.25-1c.14-.5.29-1,.44-1.52.08-.29.16-.57.25-.86.19-.64.4-1.29.61-1.93,0-.15.09-.31.15-.46.26-.8.54-1.59.84-2.38.08-.23.17-.46.26-.68.21-.57.43-1.13.66-1.7l.38-.89c.2-.49.41-1,.62-1.46.14-.32.3-.64.44-1l.65-1.38.49-1,.68-1.32.54-1c.24-.43.47-.86.72-1.28l.58-1c.25-.42.51-.83.77-1.24s.41-.65.62-1,.54-.81.81-1.21l.66-.94c.29-.4.58-.8.88-1.19l.68-.9c.31-.39.63-.79,1-1.18s.45-.56.69-.83.71-.81,1.07-1.2.44-.5.67-.74c.43-.46.87-.9,1.31-1.34.18-.17.34-.35.52-.52.63-.61,1.27-1.2,1.93-1.77.13-.12.27-.22.41-.34.53-.45,1.06-.9,1.61-1.33l.76-.56c.45-.34.9-.68,1.36-1l.9-.59c.43-.29.87-.59,1.32-.87l1-.58,1.34-.76c.35-.19.7-.36,1-.54l1.37-.68,1.11-.5,1.42-.59,1.15-.44,1.49-.52,1.18-.38c.52-.15,1-.3,1.56-.43l1.22-.32c.54-.13,1.1-.24,1.66-.35.4-.08.81-.17,1.22-.24q.88-.15,1.8-.27c.39,0,.78-.12,1.18-.16.68-.08,1.37-.13,2.07-.19l1-.08c1-.06,2.11-.09,3.2-.09s2.38,0,3.54.1c.38,0,.75.06,1.13.09.76.05,1.52.11,2.25.19l1.29.17c.65.09,1.3.18,1.94.29.44.07.87.17,1.31.25s1.18.24,1.75.38.86.21,1.29.33,1.1.29,1.63.46.83.26,1.25.4,1,.35,1.52.54l1.19.47c.49.2,1,.4,1.44.62l1.12.53c.47.22.92.46,1.37.7s.71.38,1.05.58.88.52,1.3.79.66.4,1,.62.84.58,1.25.87.61.43.9.65l1.22,1c.26.22.53.43.79.66.43.37.84.76,1.25,1.14.21.2.43.39.63.59.57.56,1.12,1.13,1.66,1.72l.1.11c.57.63,1.11,1.27,1.64,1.92.17.21.33.44.49.65.35.45.7.89,1,1.35.19.27.37.55.55.82s.58.83.85,1.25.37.6.55.9.51.82.74,1.24.36.63.53,1,.45.82.66,1.24.33.65.49,1,.4.84.59,1.26.31.67.45,1,.36.84.54,1.27.27.68.4,1,.33.86.48,1.29.25.68.37,1,.29.88.43,1.32l.32,1c.13.45.26.91.38,1.36s.19.66.28,1,.23.94.34,1.41.16.63.23.94c.11.51.22,1,.32,1.53,0,.27.12.55.17.82.13.69.25,1.37.36,2.06,0,.09,0,.18,0,.27q.18,1.15.33,2.31l.09.74c.06.52.12,1,.17,1.55,0,.3.05.59.08.89,0,.46.08.91.11,1.36l.06.94c0,.32,0,.64.05,1,0,0,0,0,0,.06.08,1.69.11,3.35.08,4.94h-104C640.62,551.19,640.9,549.33,641.25,547.46Z" transform="translate(-427.58 -382.64)"/><path class="cls-1" d="M739.51,553h4.89c0-1.59,0-3.25-.08-4.94A4.8,4.8,0,0,1,739.51,553Z" transform="translate(-427.58 -382.64)"/><path class="cls-1" d="M641.25,547.46c-.35,1.87-.63,3.73-.84,5.53H646A4.81,4.81,0,0,1,641.25,547.46Z" transform="translate(-427.58 -382.64)"/><path class="cls-1" d="M947.38,474.09H925a6.61,6.61,0,0,0-6.61,6.6V646.74a6.61,6.61,0,0,0,12.17,3.56,6.61,6.61,0,0,1,11.17.06L954,669.92h0V480.69A6.61,6.61,0,0,0,947.38,474.09Z" transform="translate(-427.58 -382.64)"/><path class="cls-1" d="M936.18,396.81c-12.95,0-22.25,9.71-22.25,22.25,0,12.14,8.9,21.85,21.44,21.85,14.16,0,23.07-9.71,22.66-21.85C958,406.52,949.53,396.81,936.18,396.81Z" transform="translate(-427.58 -382.64)"/><path class="cls-1" d="M1105.18,474.09H1057.7a1.75,1.75,0,0,1-1.75-1.75V420.13a1.75,1.75,0,0,0-2.2-1.69l-31.3,8.37a1.74,1.74,0,0,0-1.3,1.69v43.84a1.75,1.75,0,0,1-1.75,1.75H992.55a1.75,1.75,0,0,0-1.75,1.75v23.61a1.76,1.76,0,0,0,1.75,1.75h26.85a1.75,1.75,0,0,1,1.75,1.75V608c0,23.06,3.64,40.46,13.76,51,8.49,9.71,21.85,15,38.44,15,13,0,23.4-1.8,30.32-4.37a1.77,1.77,0,0,0,1.16-1.76l-1.42-23.33a1.74,1.74,0,0,0-2.15-1.59,83,83,0,0,1-18.61,1.92c-19.82,0-26.7-13.76-26.7-38V503a1.75,1.75,0,0,1,1.75-1.75h47.48a1.75,1.75,0,0,0,1.75-1.75V475.84A1.75,1.75,0,0,0,1105.18,474.09Zm-5,15.41H997.84c-2.57-2.17-1-5,1.16-5h100C1101.18,484.5,1102.73,487.33,1100.16,489.5Z" transform="translate(-427.58 -382.64)"/><path class="cls-1" d="M1222.24,469.64c-57,0-91.84,46.53-91.84,105.6s36,98.73,96.3,98.73c31.15,0,52.59-6.47,65.14-12.14l-6.07-25.49c-13.35,5.66-28.73,10.12-54.22,10.12-35.61,0-66.36-19.83-67.17-68H1302a133,133,0,0,0,1.22-16.59C1303.17,525.88,1286.17,469.64,1222.24,469.64ZM1268.78,553h-104c2.83-24.68,18.61-57.86,54.62-57.86C1259.47,495.13,1269.18,530.33,1268.78,553Z" transform="translate(-427.58 -382.64)"/><path class="cls-1" d="M1438.31,498.37a100.64,100.64,0,0,1,25.54,3h0l23.83-21.25C1478,475.3,1459.35,470,1438.31,470c-37.8,0-67.67,15.28-85.78,40.22L1380,529.7C1391.16,510.75,1410.88,498.37,1438.31,498.37Z" transform="translate(-427.58 -382.64)"/><path class="cls-1" d="M1437.09,645.65c-38.84,0-68-27.92-68-73.24a94.43,94.43,0,0,1,2-19.56l-30.2-21.4a114.67,114.67,0,0,0-7.81,42.58c0,59.88,38.44,99.94,97.51,99.94,26.3,0,46.94-6.47,56.24-11.33l-6.07-26.71C1470.68,640.39,1457.33,645.65,1437.09,645.65Z" transform="translate(-427.58 -382.64)"/><path class="cls-1" d="M579.56,641.6H472.09v-.81c8.9-10.12,17-19.83,25.08-30.75l23.48-30.54H481.21L429,647.39a7,7,0,0,0-1.46,4.29v11.21a7,7,0,0,0,7,7l141.89-.42q-15.64,20.47-15,21t25.09-27.61V648.63A7,7,0,0,0,579.56,641.6ZM579,657.5H445a2.5,2.5,0,0,1,0-5H579a2.5,2.5,0,0,1,0,5Z" transform="translate(-427.58 -382.64)"/><path class="cls-1" d="M442.71,502.82h99v.8c-8.9,10.53-17,19.83-25.49,30.35L505,548.5h39.45l38.68-50.32a7,7,0,0,0,1.45-4.16l.24-12.77a7,7,0,0,0-7-7.16l-126.31.41a72.38,72.38,0,0,1,9-17,77.87,77.87,0,0,1,17-17c-.19-.24-15.57,9.59-31,27a164.7,164.7,0,0,0-10.83,13.62v14.66A7,7,0,0,0,442.71,502.82Z" transform="translate(-427.58 -382.64)"/><path class="cls-1" d="M735.5,601.5,736.59,644c3.53-.67,6.82-1.45,9.91-2.32V613a2.5,2.5,0,0,1,5,0v27.1q2.46-.83,4.8-1.71a4.81,4.81,0,0,1,6.39,3.39l3,12.81-.24-43.09,45-12Z" transform="translate(-427.58 -382.64)"/><polygon class="cls-1" points="338.2 279.12 338.2 279.11 338.19 279.12 338.2 279.12"/><path class="cls-1" d="M746.5,650h0v-8.36c-3.09.87-6.38,1.65-9.91,2.32h0Z" transform="translate(-427.58 -382.64)"/><path class="cls-1" d="M756.3,638.39q-2.34.89-4.8,1.71V650a2.5,2.5,0,0,1-1.37,2.22l15.64,9.54h0l0-7.16-3-12.81A4.81,4.81,0,0,0,756.3,638.39Z" transform="translate(-427.58 -382.64)"/><path class="cls-1" d="M749,652.5a2.52,2.52,0,0,0,1.13-.28L746.5,650A2.51,2.51,0,0,0,749,652.5Z" transform="translate(-427.58 -382.64)"/><path class="cls-1" d="M822.89,669.92H858.5V533.47L822.89,567Zm8.61-85.42a8,8,0,0,1,16,0v49a8,8,0,0,1-16,0Z" transform="translate(-427.58 -382.64)"/><path class="cls-1" d="M822.89,549.5,843,530.23a12,12,0,0,1-2.5.27h-1a12,12,0,0,1-12-12v-114a12,12,0,0,1,12-12h1a12,12,0,0,1,12,12v114a12.08,12.08,0,0,1-.4,3l6.4-6.13V382.64H822.89Z" transform="translate(-427.58 -382.64)"/><path class="cls-1" d="M840,395.5a7.53,7.53,0,0,0-7.5,7.5V518a7.5,7.5,0,0,0,15,0V403A7.53,7.53,0,0,0,840,395.5Z" transform="translate(-427.58 -382.64)"/><path class="cls-1" d="M852.5,404.5a12,12,0,0,0-12-12h-1a12,12,0,0,0-12,12v114a12,12,0,0,0,12,12h1a12,12,0,0,0,2.5-.27l9.1-8.71a12.08,12.08,0,0,0,.4-3Zm-5,113.5a7.5,7.5,0,0,1-15,0V403a7.5,7.5,0,0,1,15,0Z" transform="translate(-427.58 -382.64)"/><path class="cls-1" d="M1463.85,501.41l33.65,51.09-28,34,51-34-32.83-72.34-8.09,27.51A65.31,65.31,0,0,0,1463.85,501.41Z" transform="translate(-427.58 -382.64)"/><path class="cls-1" d="M1463.85,501.41a65.31,65.31,0,0,1,15.73,6.26l8.09-27.51-23.83,21.25Z" transform="translate(-427.58 -382.64)"/><polygon class="cls-1" points="1068.07 203.85 1082.92 219.85 1053.21 253.29 1059.28 280 1119.92 217.85 1068.07 203.85"/><polyline class="cls-1" points="844.21 258.73 859.92 228.85 899.51 228.85 871.86 241.93 864.26 279.19"/><path class="cls-1" d="M1153.51,505.79a44.28,44.28,0,0,0-16-10c-13.62-4.76-25.78-.89-26-2-.44-2.23,34-10,34-10,20.77-4.69,37.78-8,49-10" transform="translate(-427.58 -382.64)"/></svg>